
<svg xmlns="http://www.w3.org/2000/svg" viewBox="0 0 100 100">
  <defs>
    <radialGradient id="radialGradient" cx="50%" cy="50%" r="50%" fx="50%" fy="50%">
      <stop offset="0%" stop-color="#D4AF37" />
      <stop offset="100%" stop-color="#006738" />
    </radialGradient>
  </defs>
  <circle cx="50" cy="50" r="50" fill="url(#radialGradient)" />
  <circle cx="50" cy="50" r="20" fill="#FFFFFF" />
  <path d="M50,15 C70,15 85,30 85,50 C85,70 70,85 50,85 C30,85 15,70 15,50 C15,30 30,15 50,15 Z M50,30 C38.9,30 30,38.9 30,50 C30,61.1 38.9,70 50,70 C61.1,70 70,61.1 70,50 C70,38.9 61.1,30 50,30 Z" fill="#006738" fill-opacity="0.3"/>
</svg>
